:SAMPLES-PER-SECOND 30
:FRAME-RANGE 1-2009
:FULLY-SPECIFIED
:DEGREES
1005
root  -25.0301 39.0724 0.672467 -172.511 -51.6624 174.523
RightUpLeg  -0.260772 -2.11953 6.01959
RightLeg  11.736 -8.08316 -0.485031
RightFoot  -15.6616 -0.303883 -5.24769
RightToes  4.71047e-010 1.2921e-014 -6.02303e-014
Spine  9.3856 1.6307 5.10653
Spine1  -1.82291 2.79438 -5.71362
HEad  10.0279 35.5724 -7.772
LeftShoulder1  0.985233 0.79725 -30.3247
LeftArm  10.1532 0.288498 -23.2762
LeftForeArm  2.1713 -16.4357 -10.1587
LeftHand  -0.133792 3.33737 6.8391
RightShoulder  6.83755 8.66662 49.2237
RightArm  33.3977 -5.46043 18.6809
RightForeArm  2.74471 30.8188 6.59597
RightHand  0.251797 -1.17188 7.1773
LeftUpLeg  -28.063 -3.38387 3.38666
LeftLeg  29.9283 -3.39609 -1.77729
LeftFoot  -2.64048 0.647052 -8.2883
LeftToes  2.15783e-011 -7.56106e-012 -8.20802e-012
1006
root  -25.7175 39.0525 0.0385195 -172.316 -49.8103 174.287
RightUpLeg  2.28164 -2.10473 5.66981
RightLeg  9.71628 -6.86516 -0.326462
RightFoot  -16.3407 -0.319737 -4.79211
RightToes  4.71047e-010 1.2921e-014 -6.02303e-014
Spine  8.98473 1.7487 3.62427
Spine1  -1.36116 2.95388 -6.57861
HEad  9.70084 36.7249 -7.08265
LeftShoulder1  1.02025 0.817814 -31.9166
LeftArm  19.1934 8.54422 -24.2155
LeftForeArm  -1.20233 -17.7223 -9.50476
LeftHand  -0.141754 3.10335 6.58843
RightShoulder  6.98642 8.85217 49.5386
RightArm  34.3995 -5.89722 19.1042
RightForeArm  2.73645 30.6987 6.56608
RightHand  0.260429 -1.06055 7.20559
LeftUpLeg  -26.9821 -3.23756 1.98463
LeftLeg  21.0539 -7.34566 -2.79375
LeftFoot  -1.9203 1.03468 -12.3804
LeftToes  2.15783e-011 -7.56106e-012 -8.20802e-012
1007
root  -26.4591 38.9633 -0.616602 -172.744 -48.5952 174.383
RightUpLeg  4.9302 -1.94612 5.59919
RightLeg  8.54817 -5.82581 -0.396587
RightFoot  -17.241 -0.35109 -4.5498
RightToes  4.71047e-010 1.2921e-014 -6.02303e-014
Spine  8.50969 1.58077 2.84035
Spine1  -0.419674 3.09552 -8.00445
HEad  9.43782 37.5351 -6.17474
LeftShoulder1  1.01734 0.926439 -33.3969
LeftArm  23.5203 15.9568 -25.2074
LeftForeArm  -1.43809 -17.1565 -10.26
LeftHand  -0.1435 3.09684 6.51584
RightShoulder  6.85138 8.48657 50.0609
RightArm  36.2276 -5.94838 19.364
RightForeArm  1.90799 29.6558 6.35115
RightHand  0.282394 -0.865527 7.4283
LeftUpLeg  -25.9623 0.879235 -1.24379
LeftLeg  16.1601 -9.70538 -2.84967
LeftFoot  -1.71936 1.1623 -13.6365
LeftToes  2.15783e-011 -7.56106e-012 -8.20802e-012
1008
root  -27.2476 38.7551 -1.2744 -173.127 -47.4624 175.077
RightUpLeg  6.19215 -1.52423 5.99152
RightLeg  9.28332 -5.12148 -0.742254
RightFoot  -18.8278 -0.389443 -4.00539
RightToes  4.71047e-010 1.2921e-014 -6.02303e-014
Spine  7.61366 1.67256 2.52296
Spine1  0.239353 3.45734 -9.13606
HEad  9.84894 37.7643 -5.21301
LeftShoulder1  0.992149 1.09725 -35.1225
LeftArm  22.8332 22.3638 -25.8856
LeftForeArm  -0.0574477 -15.3574 -11.8991
LeftHand  -0.14621 2.96906 6.2852
RightShoulder  6.50246 7.92646 49.8441
RightArm  38.095 -6.83048 20.0029
RightForeArm  0.891536 28.2108 6.05442
RightHand  0.289402 -0.745263 7.39198
LeftUpLeg  -25.8259 8.30481 -5.3193
LeftLeg  14.3639 -7.70277 -2.33465
LeftFoot  -1.31379 1.47348 -16.6086
LeftToes  2.15783e-011 -7.56106e-012 -8.20802e-012
1009
root  -28.041 38.5591 -1.98809 -173.646 -47.0669 175.911
RightUpLeg  7.5336 -1.18105 6.48272
RightLeg  10.0203 -5.03382 -0.712044
RightFoot  -20.008 -0.376548 -3.18281
RightToes  4.71047e-010 1.2921e-014 -6.02303e-014
Spine  6.90204 1.61761 2.26338
Spine1  0.659302 3.78702 -10.5938
HEad  10.5884 37.8485 -3.72786
LeftShoulder1  0.879864 1.40006 -35.6999
LeftArm  18.2866 28.4309 -27.0217
LeftForeArm  3.49901 -12.6687 -13.7478
LeftHand  -0.150886 2.62317 5.90252
RightShoulder  5.89577 6.84771 49.9086
RightArm  41.1955 -7.82184 20.1721
RightForeArm  -1.09134 26.5391 5.76414
RightHand  0.294801 -0.716841 7.49342
LeftUpLeg  -25.6667 12.7146 -8.87687
LeftLeg  14.7301 -5.25449 -2.13422
LeftFoot  1.9463 0.315354 -2.80903
LeftToes  2.15783e-011 -7.56106e-012 -8.20802e-012
1010
root  -28.7881 38.4323 -2.75566 -174.312 -47.0199 176.125
RightUpLeg  8.94522 -2.19265 6.23015
RightLeg  11.8791 -3.68198 -0.41079
RightFoot  -20.5716 -0.278852 -1.73031
RightToes  4.71047e-010 1.2921e-014 -6.02303e-014
Spine  7.51357 1.79713 0.125136
Spine1  0.39668 3.85802 -10.1898
HEad  11.1441 37.8001 -2.59407
LeftShoulder1  0.751618 1.72153 -36.0328
LeftArm  14.8855 34.1306 -28.0041
LeftForeArm  5.34648 -10.9212 -14.7525
LeftHand  -0.151757 2.58005 5.85509
RightShoulder  5.216 5.6857 49.7465
RightArm  45.2471 -8.90694 19.7718
RightForeArm  -3.89166 24.8295 5.51522
RightHand  0.293888 -0.767536 7.42043
LeftUpLeg  -24.5769 7.03006 -7.95238
LeftLeg  16.7134 0.155927 0.0472522
LeftFoot  3.5674 -0.572445 4.20778
LeftToes  2.15783e-011 -7.56106e-012 -8.20802e-012
1011
root  -29.5536 38.0914 -3.6284 -174.749 -47.7493 176.331
RightUpLeg  7.35108 -6.17853 5.53393
RightLeg  19.8283 0.541384 0.00259647
RightFoot  -21.8372 -0.0577971 0.980602
RightToes  4.71047e-010 1.2921e-014 -6.02303e-014
Spine  7.71686 2.01153 -1.75371
Spine1  0.160502 3.70894 -9.17014
HEad  11.3971 37.1627 -1.66632
LeftShoulder1  0.708186 1.82988 -36.1618
LeftArm  14.2665 37.6737 -28.0697
LeftForeArm  4.58098 -9.84699 -15.4706
LeftHand  -0.125618 2.52134 4.65707
RightShoulder  4.85391 4.95874 50.2715
RightArm  48.5153 -9.60155 19.235
RightForeArm  -6.51362 21.8166 6.09525
RightHand  0.286242 -0.61036 7.08466
LeftUpLeg  -25.8942 4.50318 -7.05529
LeftLeg  23.7631 1.34111 0.982135
LeftFoot  -0.430947 -0.314556 3.32046
LeftToes  2.15783e-011 -7.56106e-012 -8.20802e-012
1012
root  -30.2408 38.0526 -4.36181 -174.799 -47.7057 175.976
RightUpLeg  4.16693 -9.02867 3.47764
RightLeg  29.8992 4.84526 2.77515
RightFoot  -18.6876 0.218729 5.37789
RightToes  4.71047e-010 1.2921e-014 -6.02303e-014
Spine  8.1344 2.34101 -2.57594
Spine1  0.555369 4.28275 -10.5526
HEad  11.4409 36.6459 -1.19997
LeftShoulder1  0.720587 1.79477 -36.0231
LeftArm  14.969 39.8325 -27.5414
LeftForeArm  3.67064 -9.64995 -15.6776
LeftHand  -0.131102 2.4941 4.84336
RightShoulder  4.8936 4.9768 50.5704
RightArm  42.5025 -9.94387 18.8921
RightForeArm  -0.239834 16.6845 10.5273
RightHand  0.28071 -0.741417 7.16711
LeftUpLeg  -24.9452 6.79088 -7.26881
LeftLeg  25.9288 -0.564865 0.0441393
LeftFoot  -2.95202 -0.202002 2.99689
LeftToes  2.15783e-011 -7.56106e-012 -8.20802e-012
1013
root  -30.8645 38.0414 -4.98627 -174.031 -47.0011 175.337
RightUpLeg  -1.41153 -10.3046 0.892165
RightLeg  41.6529 7.55467 6.87134
RightFoot  -12.3376 0.0535316 15.7555
RightToes  4.71047e-010 1.2921e-014 -6.02303e-014
Spine  8.35545 2.66214 -3.33665
Spine1  0.510874 4.75154 -12.1181
HEad  11.9269 36.8957 -1.38265
LeftShoulder1  0.659118 1.92946 -35.7311
LeftArm  11.3622 41.7493 -27.545
LeftForeArm  4.47476 -9.97877 -15.2131
LeftHand  -0.126059 2.20379 4.25656
RightShoulder  4.95735 5.10033 50.4936
RightArm  38.7992 -9.83706 18.4642
RightForeArm  4.19215 12.8971 13.4717
RightHand  0.291096 -0.992667 7.89656
LeftUpLeg  -24.3295 9.14112 -7.83014
LeftLeg  27.0163 -1.77537 -0.629618
LeftFoot  -4.80771 -0.181235 3.6822
LeftToes  2.15783e-011 -7.56106e-012 -8.20802e-012
1014
root  -31.3902 37.9725 -5.54303 -172.783 -47.7143 174.245
RightUpLeg  -7.63929 -11.9942 -1.66157
RightLeg  52.2552 7.42872 9.82819
RightFoot  -3.99057 -1.62662 24.539
RightToes  4.71047e-010 1.2921e-014 -6.02303e-014
Spine  8.82367 2.48939 -5.03044
Spine1  0.298841 4.30408 -12.1603
HEad  12.234 37.4684 -2.53151
LeftShoulder1  0.60685 2.0512 -35.6414
LeftArm  11.3042 42.0929 -27.8263
LeftForeArm  3.98462 -11.5245 -14.25
LeftHand  -0.155701 2.03467 5.11444
RightShoulder  4.7585 4.87706 49.7692
RightArm  38.5979 -10.1254 17.9914
RightForeArm  6.44469 12.0788 13.9616
RightHand  0.356089 -0.849646 9.29119
LeftUpLeg  -24.0396 10.2997 -8.56767
LeftLeg  28.1856 -3.38427 -1.60004
LeftFoot  -6.52784 -0.116518 3.707
LeftToes  2.15783e-011 -7.56106e-012 -8.20802e-012
1015
root  -31.9048 38.0527 -6.14465 -172.395 -49.1233 174.034
RightUpLeg  -12.6829 -14.5014 -3.0711
RightLeg  59.5944 4.98083 8.65541
RightFoot  -1.12956 -2.13958 23.5464
RightToes  4.71047e-010 1.2921e-014 -6.02303e-014
Spine  9.1715 2.18377 -5.79663
Spine1  0.436275 3.78357 -11.6498
HEad  12.098 37.6813 -3.58741
LeftShoulder1  0.658704 1.92542 -35.6013
LeftArm  10.7324 40.5272 -27.9366
LeftForeArm  3.92509 -12.9399 -13.1713
LeftHand  -0.170215 1.9211 5.45779
RightShoulder  4.45008 4.42853 49.1827
RightArm  38.901 -10.4353 17.341
RightForeArm  6.89565 12.4909 13.6529
RightHand  0.397735 -0.427674 9.41042
LeftUpLeg  -22.8671 11.0498 -8.34084
LeftLeg  28.3006 -5.40953 -2.78284
LeftFoot  -7.63691 -0.071277 3.62521
LeftToes  2.15783e-011 -7.56106e-012 -8.20802e-012
1016
root  -32.4029 38.3102 -6.80676 -173.102 -49.9828 174.863
RightUpLeg  -16.7604 -16.1789 -3.77324
RightLeg  63.7517 2.63898 5.26989
RightFoot  -2.73885 -1.5815 20.5697
RightToes  4.71047e-010 1.2921e-014 -6.02303e-014
Spine  9.54085 2.02417 -5.60626
Spine1  0.519126 3.56904 -11.4019
HEad  12.0479 37.9437 -3.89258
LeftShoulder1  0.683332 1.85239 -35.2567
LeftArm  10.5352 37.5065 -28.0943
LeftForeArm  2.91862 -14.7953 -11.699
LeftHand  -0.216619 1.52001 6.35598
RightShoulder  4.39112 4.36026 48.9533
RightArm  40.4877 -10.6765 16.8274
RightForeArm  4.16402 13.4884 13.1135
RightHand  0.355925 -0.634101 8.83051
LeftUpLeg  -20.6324 12.1269 -7.1986
LeftLeg  26.9782 -6.97676 -3.48035
LeftFoot  -8.23672 -0.0397471 3.29559
LeftToes  2.15783e-011 -7.56106e-012 -8.20802e-012
1017
root  -32.8912 38.623 -7.49713 -174.127 -50.5738 176.226
RightUpLeg  -20.4974 -17.0938 -3.81279
RightLeg  64.6853 0.586974 0.764674
RightFoot  -3.157 -1.19191 16.2558
RightToes  4.71047e-010 1.2921e-014 -6.02303e-014
Spine  9.56597 1.81053 -5.30185
Spine1  0.472754 3.28229 -10.7564
HEad  12.5592 38.2808 -3.68509
LeftShoulder1  0.699626 1.80519 -35.0712
LeftArm  9.96427 33.3524 -27.8947
LeftForeArm  2.55864 -16.6258 -10.0317
LeftHand  -0.24405 1.59321 7.32119
RightShoulder  4.4466 4.48859 48.774
RightArm  40.3376 -10.4257 16.4969
RightForeArm  3.2271 13.9372 12.794
RightHand  0.304308 -0.662561 7.61681
LeftUpLeg  -18.1455 12.2386 -5.40432
LeftLeg  24.9645 -7.66449 -3.77753
LeftFoot  -8.5119 -0.015435 2.6986
LeftToes  2.15783e-011 -7.56106e-012 -8.20802e-012
1018
root  -33.3398 38.9275 -8.20745 -175.172 -51.0759 177.587
RightUpLeg  -23.4712 -17.4837 -3.60074
RightLeg  62.6954 -1.59542 -3.90824
RightFoot  -3.77435 -0.922619 13.5025
RightToes  4.71047e-010 1.2921e-014 -6.02303e-014
Spine  9.71795 1.43124 -5.18596
Spine1  0.0157739 2.77428 -9.97056
HEad  13.0617 38.8022 -3.28943
LeftShoulder1  0.734622 1.69883 -34.5946
LeftArm  7.56358 28.554 -27.6608
LeftForeArm  2.35102 -18.4002 -8.26265
LeftHand  -0.279521 1.5532 8.33768
RightShoulder  4.56361 4.71332 48.6856
RightArm  39.4861 -10.0361 16.5043
RightForeArm  2.67858 14.891 11.9234
RightHand  0.294724 -0.834004 7.68725
LeftUpLeg  -15.5669 11.1745 -3.25825
LeftLeg  22.6824 -7.1442 -4.0254
LeftFoot  -8.51819 0.00171967 2.00963
LeftToes  2.15783e-011 -7.56106e-012 -8.20802e-012
1019
root  -33.7606 39.2295 -8.92219 -176.531 -51.5136 179.164
RightUpLeg  -25.2626 -17.7238 -3.11955
RightLeg  57.745 -3.78798 -6.89294
RightFoot  -3.94806 -0.765145 11.3897
RightToes  4.71047e-010 1.2921e-014 -6.02303e-014
Spine  9.88747 0.898491 -4.96878
Spine1  -0.40717 2.0896 -8.89673
HEad  13.2156 39.4434 -3.23251
LeftShoulder1  0.776583 1.56132 -33.8871
LeftArm  3.70439 22.7738 -27.0886
LeftForeArm  4.36338 -19.1411 -7.32379
LeftHand  -0.301186 1.83371 9.68173
RightShoulder  4.62981 4.84899 48.5877
RightArm  39.9022 -9.39041 16.7363
RightForeArm  0.668658 16.777 10.2771
RightHand  0.324288 -0.670865 8.1249
LeftUpLeg  -12.6765 10.0012 -0.95068
LeftLeg  19.8735 -6.43645 -4.23761
LeftFoot  -8.34853 0.0158146 1.31668
LeftToes  2.15783e-011 -7.56106e-012 -8.20802e-012
